<svg width="152" height="24" viewBox="0 0 152 24" fill="none" xmlns="http://www.w3.org/2000/svg">
<path d="M11.5716 0.711861C11.7659 0.388951 12.2341 0.388951 12.4284 0.711861L15.8407 6.38191C15.9105 6.49792 16.0244 6.58065 16.1563 6.6112L22.6033 8.10434C22.9704 8.18937 23.1151 8.63461 22.868 8.91921L18.53 13.9166C18.4412 14.0189 18.3977 14.1527 18.4094 14.2876L18.9816 20.8805C19.0142 21.256 18.6354 21.5311 18.2884 21.3841L12.195 18.8026C12.0704 18.7498 11.9296 18.7498 11.805 18.8026L5.71158 21.3841C5.36457 21.5311 4.98583 21.256 5.01841 20.8805L5.59059 14.2876C5.60229 14.1527 5.5588 14.0189 5.47004 13.9166L1.13196 8.91921C0.884904 8.63461 1.02957 8.18937 1.39673 8.10434L7.84372 6.6112C7.97562 6.58065 8.08949 6.49792 8.15931 6.38191L11.5716 0.711861Z" fill="#F29E4C"/>
<path d="M43.5716 0.711861C43.7659 0.388951 44.2341 0.388951 44.4284 0.711861L47.8407 6.38191C47.9105 6.49792 48.0244 6.58065 48.1563 6.6112L54.6033 8.10434C54.9704 8.18937 55.1151 8.63461 54.868 8.91921L50.53 13.9166C50.4412 14.0189 50.3977 14.1527 50.4094 14.2876L50.9816 20.8805C51.0142 21.256 50.6354 21.5311 50.2884 21.3841L44.195 18.8026C44.0704 18.7498 43.9296 18.7498 43.805 18.8026L37.7116 21.3841C37.3646 21.5311 36.9858 21.256 37.0184 20.8805L37.5906 14.2876C37.6023 14.1527 37.5588 14.0189 37.47 13.9166L33.132 8.91921C32.8849 8.63461 33.0296 8.18937 33.3967 8.10434L39.8437 6.6112C39.9756 6.58065 40.0895 6.49792 40.1593 6.38191L43.5716 0.711861Z" fill="#F29E4C"/>
<path d="M75.5716 0.711861C75.7659 0.388951 76.2341 0.388951 76.4284 0.711861L79.8407 6.38191C79.9105 6.49792 80.0244 6.58065 80.1563 6.6112L86.6033 8.10434C86.9704 8.18937 87.1151 8.63461 86.868 8.91921L82.53 13.9166C82.4412 14.0189 82.3977 14.1527 82.4094 14.2876L82.9816 20.8805C83.0142 21.256 82.6354 21.5311 82.2884 21.3841L76.195 18.8026C76.0704 18.7498 75.9296 18.7498 75.805 18.8026L69.7116 21.3841C69.3646 21.5311 68.9858 21.256 69.0184 20.8805L69.5906 14.2876C69.6023 14.1527 69.5588 14.0189 69.47 13.9166L65.132 8.91921C64.8849 8.63461 65.0296 8.18937 65.3967 8.10434L71.8437 6.6112C71.9756 6.58065 72.0895 6.49792 72.1593 6.38191L75.5716 0.711861Z" fill="#F29E4C"/>
<path d="M107.572 0.711861C107.766 0.388951 108.234 0.388951 108.428 0.711861L111.841 6.38191C111.911 6.49792 112.024 6.58065 112.156 6.6112L118.603 8.10434C118.97 8.18937 119.115 8.63461 118.868 8.91921L114.53 13.9166C114.441 14.0189 114.398 14.1527 114.409 14.2876L114.982 20.8805C115.014 21.256 114.635 21.5311 114.288 21.3841L108.195 18.8026C108.07 18.7498 107.93 18.7498 107.805 18.8026L101.712 21.3841C101.365 21.5311 100.986 21.256 101.018 20.8805L101.591 14.2876C101.602 14.1527 101.559 14.0189 101.47 13.9166L97.132 8.91921C96.8849 8.63461 97.0296 8.18937 97.3967 8.10434L103.844 6.6112C103.976 6.58065 104.089 6.49792 104.159 6.38191L107.572 0.711861Z" fill="#F29E4C"/>
<path d="M139.572 0.711861C139.766 0.388951 140.234 0.388951 140.428 0.711861L143.841 6.38191C143.911 6.49792 144.024 6.58065 144.156 6.6112L150.603 8.10434C150.97 8.18937 151.115 8.63461 150.868 8.91921L146.53 13.9166C146.441 14.0189 146.398 14.1527 146.409 14.2876L146.982 20.8805C147.014 21.256 146.635 21.5311 146.288 21.3841L140.195 18.8026C140.07 18.7498 139.93 18.7498 139.805 18.8026L133.712 21.3841C133.365 21.5311 132.986 21.256 133.018 20.8805L133.591 14.2876C133.602 14.1527 133.559 14.0189 133.47 13.9166L129.132 8.91921C128.885 8.63461 129.03 8.18937 129.397 8.10434L135.844 6.6112C135.976 6.58065 136.089 6.49792 136.159 6.38191L139.572 0.711861Z" fill="#F29E4C"/>
</svg>
